<svg width="24" height="12" viewBox="0 0 24 12" fill="none" xmlns="http://www.w3.org/2000/svg">
<path d="M23.725 6.66361C23.7248 6.66389 23.7245 6.66422 23.7242 6.6645L18.8256 11.5395C18.4586 11.9047 17.865 11.9033 17.4997 11.5363C17.1345 11.1693 17.1359 10.5758 17.5028 10.2105L20.7918 6.9375H0.9375C0.419719 6.9375 0 6.51778 0 6C0 5.48222 0.419719 5.0625 0.9375 5.0625H20.7917L17.5029 1.7895C17.1359 1.42425 17.1345 0.830675 17.4998 0.463691C17.865 0.0966129 18.4587 0.0953474 18.8256 0.460504L23.7242 5.3355C23.7245 5.33578 23.7248 5.33611 23.7251 5.33639C24.0923 5.70286 24.0911 6.29836 23.725 6.66361Z" fill="white"/>
</svg>
