<svg width="24" height="12" viewBox="0 0 24 12" fill="none" xmlns="http://www.w3.org/2000/svg">
<path d="M0.274969 6.66361C0.275249 6.66389 0.275484 6.66422 0.275812 6.6645L5.17444 11.5395C5.54142 11.9047 6.135 11.9033 6.5003 11.5363C6.86555 11.1693 6.86414 10.5758 6.49716 10.2105L3.20822 6.9375H23.0625C23.5803 6.9375 24 6.51778 24 6C24 5.48222 23.5803 5.0625 23.0625 5.0625H3.20827L6.49711 1.7895C6.86409 1.42425 6.8655 0.830675 6.50025 0.463691C6.13495 0.0966129 5.54133 0.0953474 5.17439 0.460504L0.275764 5.3355C0.275484 5.33578 0.275249 5.33611 0.274921 5.33639C-0.0922508 5.70286 -0.0910778 6.29836 0.274969 6.66361Z" fill="white"/>
</svg>
