<svg width="20" height="20" viewBox="0 0 20 20" fill="none" xmlns="http://www.w3.org/2000/svg">
<g clip-path="url(#clip0_113_460)">
<path d="M1.24805 1.875H3.25305L5.46242 11.2662C4.9806 11.3057 4.53277 11.5302 4.21288 11.8927C3.893 12.2551 3.72592 12.7274 3.7467 13.2104C3.76748 13.6934 3.9745 14.1496 4.32433 14.4832C4.67416 14.8169 5.13962 15.0021 5.62305 15H16.248C16.4138 15 16.5728 14.9342 16.69 14.8169C16.8072 14.6997 16.873 14.5408 16.873 14.375C16.873 14.2092 16.8072 14.0503 16.69 13.9331C16.5728 13.8158 16.4138 13.75 16.248 13.75H5.62305C5.45729 13.75 5.29832 13.6842 5.18111 13.5669C5.0639 13.4497 4.99805 13.2908 4.99805 13.125C4.99805 12.9592 5.0639 12.8003 5.18111 12.6831C5.29832 12.5658 5.45729 12.5 5.62305 12.5H16.1743C16.5972 12.5011 17.0079 12.3587 17.3394 12.0961C17.6709 11.8335 17.9035 11.4663 17.9993 11.0544L19.3237 5.42938C19.3884 5.15412 19.3901 4.86778 19.3285 4.59179C19.267 4.3158 19.1438 4.05731 18.9682 3.83566C18.7926 3.61402 18.5691 3.43496 18.3145 3.31189C18.0599 3.18882 17.7808 3.12493 17.498 3.125H4.83117L4.3568 1.10688C4.32452 0.969683 4.24683 0.847426 4.13632 0.759951C4.02581 0.672476 3.88898 0.624919 3.74805 0.625H1.24805C1.08229 0.625 0.923315 0.690848 0.806105 0.808058C0.688895 0.925269 0.623047 1.08424 0.623047 1.25C0.623047 1.41576 0.688895 1.57473 0.806105 1.69194C0.923315 1.80915 1.08229 1.875 1.24805 1.875ZM17.498 4.375C17.5917 4.37679 17.6838 4.39927 17.7678 4.44085C17.8517 4.48243 17.9254 4.54206 17.9836 4.61548C18.0418 4.6889 18.083 4.77428 18.1043 4.8655C18.1256 4.95673 18.1265 5.05153 18.1068 5.14313L16.7818 10.7681C16.7502 10.9054 16.6728 11.0279 16.5625 11.1155C16.4521 11.203 16.3152 11.2505 16.1743 11.25H6.74305L5.12305 4.375H17.498Z" fill="white"/>
<path d="M12.498 17.5C12.498 17.8708 12.608 18.2334 12.814 18.5417C13.0201 18.85 13.3129 19.0904 13.6555 19.2323C13.9981 19.3742 14.3751 19.4113 14.7388 19.339C15.1026 19.2666 15.4366 19.088 15.6989 18.8258C15.9611 18.5636 16.1397 18.2295 16.212 17.8658C16.2844 17.5021 16.2472 17.1251 16.1053 16.7825C15.9634 16.4399 15.7231 16.147 15.4147 15.941C15.1064 15.735 14.7439 15.625 14.373 15.625C13.8758 15.625 13.3989 15.8225 13.0472 16.1742C12.6956 16.5258 12.498 17.0027 12.498 17.5ZM14.998 17.5C14.998 17.6236 14.9614 17.7445 14.8927 17.8472C14.824 17.95 14.7264 18.0301 14.6122 18.0774C14.498 18.1247 14.3724 18.1371 14.2511 18.113C14.1299 18.0889 14.0185 18.0294 13.9311 17.9419C13.8437 17.8545 13.7842 17.7432 13.7601 17.6219C13.7359 17.5007 13.7483 17.375 13.7956 17.2608C13.8429 17.1466 13.923 17.049 14.0258 16.9803C14.1286 16.9117 14.2494 16.875 14.373 16.875C14.5388 16.875 14.6978 16.9408 14.815 17.0581C14.9322 17.1753 14.998 17.3342 14.998 17.5Z" fill="white"/>
<path d="M5.62305 17.5C5.62305 17.8708 5.73301 18.2334 5.93904 18.5417C6.14507 18.85 6.4379 19.0904 6.78052 19.2323C7.12313 19.3742 7.50013 19.4113 7.86384 19.339C8.22756 19.2666 8.56165 19.088 8.82387 18.8258C9.0861 18.5636 9.26467 18.2295 9.33702 17.8658C9.40937 17.5021 9.37224 17.1251 9.23032 16.7825C9.08841 16.4399 8.84808 16.147 8.53974 15.941C8.2314 15.735 7.86889 15.625 7.49805 15.625C7.00077 15.625 6.52385 15.8225 6.17222 16.1742C5.82059 16.5258 5.62305 17.0027 5.62305 17.5ZM8.12305 17.5C8.12305 17.6236 8.08639 17.7445 8.01772 17.8472C7.94904 17.95 7.85143 18.0301 7.73722 18.0774C7.62302 18.1247 7.49735 18.1371 7.37612 18.113C7.25488 18.0889 7.14351 18.0294 7.05611 17.9419C6.9687 17.8545 6.90917 17.7432 6.88506 17.6219C6.86094 17.5007 6.87332 17.375 6.92062 17.2608C6.96793 17.1466 7.04803 17.049 7.15082 16.9803C7.2536 16.9117 7.37443 16.875 7.49805 16.875C7.66381 16.875 7.82278 16.9408 7.93999 17.0581C8.0572 17.1753 8.12305 17.3342 8.12305 17.5Z" fill="white"/>
</g>
<defs>
<clipPath id="clip0_113_460">
<rect width="20" height="20" fill="white" transform="translate(-0.00195312)"/>
</clipPath>
</defs>
</svg>
