<svg width="20" height="20" viewBox="0 0 20 20" fill="none" xmlns="http://www.w3.org/2000/svg">
<path d="M18.5649 17.6831L14.028 13.1461C15.0227 11.9534 15.623 10.4209 15.623 8.75C15.623 4.95906 12.539 1.875 8.74805 1.875C4.95711 1.875 1.87305 4.95906 1.87305 8.75C1.87305 12.5409 4.95711 15.625 8.74805 15.625C10.419 15.625 11.9515 15.0247 13.1441 14.03L17.6812 18.567C17.8032 18.6891 17.9632 18.7502 18.123 18.7502C18.2829 18.7502 18.4429 18.6891 18.5649 18.567C18.8091 18.3228 18.8091 17.9272 18.5649 17.6831ZM3.12305 8.75C3.12305 5.64844 5.64617 3.125 8.74805 3.125C11.8499 3.125 14.373 5.64844 14.373 8.75C14.373 11.8516 11.8499 14.375 8.74805 14.375C5.64617 14.375 3.12305 11.8516 3.12305 8.75Z" fill="white"/>
</svg>
